<?xml version="1.0" standalone="no"?>
<!DOCTYPE svg PUBLIC "-//W3C//DTD SVG 20010904//EN"
 "http://www.w3.org/TR/2001/REC-SVG-20010904/DTD/svg10.dtd">
<svg version="1.0" xmlns="http://www.w3.org/2000/svg"
 width="700.000000pt" height="700.000000pt" viewBox="0 0 700.000000 700.000000"
 preserveAspectRatio="xMidYMid meet">
<metadata>
Created by potrace 1.11, written by Peter Selinger 2001-2013
</metadata>
<g transform="translate(0.000000,700.000000) scale(0.100000,-0.100000)"
fill="#000000" stroke="none">
<path d="M0 3500 l0 -3500 3500 0 3500 0 0 3500 0 3500 -3500 0 -3500 0 0
-3500z m3561 3104 c8 -8 19 -14 22 -14 4 0 35 -17 69 -38 35 -21 70 -41 78
-45 8 -4 24 -13 35 -19 63 -41 143 -88 149 -88 3 0 23 -11 44 -23 20 -13 64
-39 97 -57 33 -18 74 -41 90 -52 17 -10 39 -22 50 -28 11 -5 43 -23 70 -40 28
-16 57 -33 65 -37 8 -4 43 -24 78 -45 34 -21 64 -38 67 -38 3 0 34 -18 70 -40
36 -22 68 -40 70 -40 3 0 22 -11 43 -23 43 -28 143 -84 187 -106 17 -8 32 -17
35 -20 3 -4 16 -12 30 -18 14 -7 57 -31 95 -53 39 -22 79 -45 90 -50 11 -6 34
-18 50 -28 106 -65 146 -82 190 -82 31 0 58 -8 85 -25 24 -15 54 -25 78 -25
44 0 96 -24 134 -63 19 -19 37 -27 63 -27 22 0 43 -8 55 -20 19 -19 27 -20 88
-12 70 10 97 2 107 -29 3 -9 28 -37 54 -62 71 -67 74 -81 72 -322 0 -16 2 -92
4 -167 5 -134 5 -137 -19 -163 l-24 -26 -5 -427 c-2 -235 -3 -767 -3 -1183 1
-647 3 -758 16 -773 20 -25 15 -281 -7 -334 -17 -41 -38 -313 -29 -373 7 -44
-3 -101 -15 -93 -5 3 -9 18 -9 35 0 16 -4 37 -10 47 -5 9 -14 60 -19 112 -5
52 -15 117 -21 143 -10 41 -15 48 -33 45 -21 -3 -22 -10 -27 -125 -3 -67 -8
-124 -10 -127 -3 -3 -11 -1 -19 3 -12 8 -21 124 -21 295 0 88 -12 112 -37 76
-13 -17 -20 -51 -23 -110 -4 -67 -8 -85 -20 -85 -12 0 -14 12 -12 63 2 44 -2
69 -13 84 -8 13 -15 32 -15 45 0 12 -7 29 -17 38 -14 15 -17 15 -25 1 -5 -8
-6 -38 -4 -66 4 -48 3 -50 -20 -50 -13 0 -24 4 -24 8 0 4 -13 15 -29 25 -24
14 -31 14 -47 3 -16 -12 -20 -33 -26 -128 -12 -179 -19 -238 -29 -238 -5 0 -9
26 -9 58 0 49 -4 62 -24 81 -15 14 -26 19 -30 12 -4 -6 -7 -107 -8 -226 0
-118 -4 -218 -9 -221 -5 -3 -9 3 -9 13 0 10 -11 50 -25 88 -18 52 -25 91 -25
150 0 90 -7 125 -24 125 -6 0 -18 -10 -26 -22 -13 -20 -15 -76 -13 -363 2
-187 -1 -358 -6 -380 l-8 -40 -7 30 c-4 17 -12 48 -18 70 -6 22 -12 94 -13
160 -3 96 -9 136 -29 199 -15 45 -26 102 -26 132 0 42 -4 55 -19 64 -27 14
-28 13 -35 -15 -4 -17 0 -36 10 -55 13 -21 15 -32 7 -42 -6 -7 -11 -44 -11
-82 -1 -38 -6 -74 -11 -79 -13 -13 -19 3 -25 73 -8 98 -32 210 -49 227 -15 15
-17 14 -27 -11 -5 -15 -10 -42 -10 -59 0 -18 -7 -105 -16 -194 -12 -113 -21
-160 -29 -157 -6 3 -12 19 -13 37 -6 131 -35 377 -44 377 -4 0 -17 20 -29 45
-12 25 -25 47 -29 50 -4 3 -23 -6 -41 -18 -32 -21 -34 -27 -39 -92 -6 -69 -17
-72 -22 -6 -3 40 -35 58 -64 37 -13 -10 -18 -31 -21 -87 -2 -46 -9 -79 -18
-89 -10 -11 -15 -39 -15 -88 0 -57 -3 -72 -15 -72 -20 0 -25 26 -28 150 -2
100 -3 105 -24 108 -13 2 -32 -6 -45 -17 -12 -12 -26 -21 -30 -21 -5 0 -33
-25 -63 -57 l-55 -56 0 -131 c0 -72 -5 -138 -10 -146 -8 -12 -10 -11 -10 7 0
12 -5 44 -12 72 -11 47 -12 49 -25 31 -8 -11 -12 -24 -9 -29 3 -5 -5 -16 -19
-25 -24 -16 -25 -21 -25 -111 0 -52 -3 -95 -6 -95 -21 0 -33 37 -38 126 -8
122 -17 184 -24 164 -3 -8 -12 -20 -21 -27 -12 -9 -16 -32 -18 -100 -1 -48 -2
-122 -3 -163 l-2 -75 -15 45 c-8 25 -16 68 -18 96 -4 58 -33 164 -44 164 -4 0
-13 11 -19 25 -9 19 -16 23 -32 17 -12 -4 -27 -19 -33 -32 -7 -15 -23 -26 -37
-28 -89 -11 -121 -44 -125 -131 -4 -74 -3 -71 -18 -71 -8 0 -17 19 -23 46 -10
51 -27 63 -32 22 -4 -30 -11 -35 -29 -17 -23 23 -43 2 -43 -46 0 -46 -13 -58
-37 -34 -7 7 -19 9 -27 6 -12 -5 -14 -19 -10 -74 6 -67 5 -68 -13 -45 -16 20
-21 21 -37 9 -17 -12 -19 -29 -21 -138 -2 -146 -13 -229 -30 -229 -13 0 -31
142 -20 160 3 5 -1 43 -10 84 -8 41 -15 105 -15 141 0 78 -21 138 -47 133 -22
-4 -31 -50 -42 -213 -6 -103 -8 -114 -15 -78 -5 24 -12 43 -17 43 -5 0 -9 40
-9 88 0 95 -12 128 -43 116 -11 -4 -16 -13 -12 -24 3 -11 0 -20 -10 -24 -12
-4 -15 5 -17 52 -6 164 -5 162 -22 162 -8 0 -24 -12 -35 -26 -12 -15 -21 -21
-21 -14 0 21 -73 131 -84 127 -6 -2 -12 -27 -14 -55 -3 -44 -6 -52 -23 -52
-16 0 -19 7 -19 41 0 66 -71 169 -117 169 -21 0 -23 -4 -23 -57 0 -32 -3 -75
-6 -96 -7 -38 -7 -38 -23 -15 -9 14 -18 53 -21 103 -5 77 -6 80 -30 80 -23 0
-25 -4 -32 -65 -3 -36 -7 -119 -8 -185 -3 -144 -10 -215 -21 -215 -5 0 -9 19
-9 43 -1 23 -7 53 -15 67 -8 14 -14 43 -15 66 0 22 -7 49 -15 60 -8 10 -15 35
-15 54 0 19 -7 71 -16 115 -8 44 -21 106 -27 138 -6 32 -14 61 -17 66 -8 13
-185 121 -198 121 -6 0 -20 -14 -32 -30 -16 -22 -27 -29 -41 -25 -17 6 -19 1
-19 -34 0 -51 -9 -78 -21 -59 -5 7 -9 25 -9 39 0 14 -11 49 -25 77 -14 29 -25
61 -25 71 0 46 -38 85 -124 129 -84 44 -84 44 -113 26 -40 -26 -43 -32 -43
-91 0 -79 -15 -64 -29 29 -6 46 -14 97 -17 114 -5 36 -21 52 -82 82 -32 16
-48 20 -61 12 -26 -13 -31 -31 -24 -93 8 -79 -8 -110 -17 -34 -6 44 -14 63
-35 83 -22 20 -26 31 -22 57 5 33 -8 71 -22 63 -4 -3 -8 -44 -9 -92 -1 -49 -6
-92 -11 -97 -11 -11 -31 54 -40 133 -5 50 -8 55 -31 55 -23 0 -26 -5 -37 -80
-6 -44 -12 -109 -13 -145 -1 -60 -14 -152 -20 -140 -2 3 -6 66 -11 140 -13
201 -23 318 -30 324 -3 4 -23 7 -45 9 -35 2 -39 0 -36 -20 2 -12 -4 -48 -13
-81 -8 -33 -15 -75 -15 -93 0 -26 -3 -30 -10 -19 -5 8 -7 47 -3 85 7 87 -9
155 -37 155 -10 0 -21 -8 -24 -17 -4 -18 -19 -152 -32 -287 -8 -96 -28 -62
-22 38 5 72 -15 213 -32 230 -8 8 -30 -30 -30 -54 0 -4 -7 -10 -15 -14 -11 -4
-15 -22 -15 -73 0 -37 -5 -86 -10 -108 -5 -22 -10 -127 -10 -232 0 -106 -4
-193 -9 -193 -24 0 -43 143 -47 355 -5 318 -19 551 -33 568 -9 12 -11 27 -5
49 4 18 9 121 11 228 2 107 4 211 6 230 3 52 -12 1410 -19 1663 -4 119 -10
217 -15 217 -5 0 -15 -12 -21 -26 -12 -25 -12 -25 -25 18 -10 33 -11 64 -3
135 13 116 13 108 -8 129 -12 12 -19 40 -22 88 -5 61 -2 77 18 117 20 38 33
50 76 68 28 11 57 21 63 21 6 0 13 3 15 8 4 9 124 102 132 102 3 0 27 15 53
34 55 39 115 66 149 66 21 0 192 84 274 135 19 12 42 25 50 28 8 4 38 21 65
38 28 16 62 35 78 40 15 6 27 14 27 19 0 4 8 10 18 13 9 3 40 20 67 36 28 17
60 35 71 40 12 5 43 30 70 55 26 25 58 46 69 46 12 0 43 14 70 31 27 17 59 35
72 40 17 6 23 16 23 38 0 35 27 55 64 45 19 -4 37 5 87 45 57 46 78 55 149 64
8 1 19 12 24 24 12 27 56 53 90 53 13 0 46 11 72 25 26 14 51 25 56 25 6 0 24
10 41 23 18 12 41 27 52 33 11 6 47 25 79 43 33 17 76 44 95 59 20 15 48 34
63 42 15 8 44 31 65 51 37 34 95 69 117 69 6 0 22 9 36 20 27 20 73 18 101 -6z"/>
<path d="M2988 6111 c-15 -18 -15 -19 0 -24 10 -3 25 -8 35 -12 14 -6 17 -2
17 24 0 37 -26 43 -52 12z"/>
<path d="M3237 6118 c-23 -8 -28 -15 -23 -31 3 -13 -2 -29 -14 -42 -10 -11
-20 -33 -22 -50 -3 -26 -7 -30 -30 -27 -24 2 -28 -1 -28 -23 0 -14 -4 -25 -8
-25 -16 0 -21 13 -12 30 11 21 -8 33 -30 20 -19 -12 -30 -3 -30 24 0 35 -10
37 -38 10 -44 -40 -62 -33 -62 26 0 41 -3 50 -17 50 -31 -1 -66 -38 -61 -64 3
-16 -3 -35 -18 -53 l-22 -28 -24 23 c-35 32 -45 28 -52 -20 -12 -79 -26 -108
-50 -108 -12 0 -27 5 -33 11 -18 18 -35 0 -32 -35 2 -17 -1 -38 -6 -45 -4 -8
-10 -70 -11 -139 -2 -68 -5 -127 -8 -130 -8 -7 -36 18 -36 32 0 6 -8 27 -19
46 -10 19 -21 57 -25 83 -5 30 -12 47 -19 44 -27 -8 -38 -60 -41 -198 -2 -77
-7 -143 -10 -146 -3 -4 -6 -30 -6 -59 0 -29 -4 -56 -10 -59 -10 -6 -15 12 -24
80 -2 22 -12 72 -20 110 -9 39 -16 88 -16 111 0 59 -18 108 -35 94 -9 -8 -11
-20 -5 -40 5 -16 4 -45 -2 -67 -5 -21 -12 -49 -14 -63 -14 -71 -14 -71 -36
-68 -19 3 -24 15 -38 89 -10 48 -20 94 -23 103 -10 25 -36 19 -43 -10 -5 -17
-12 -24 -23 -21 -14 3 -16 -2 -13 -30 3 -25 0 -33 -11 -33 -9 0 -19 5 -22 10
-9 14 -68 13 -83 -2 -7 -7 -12 -20 -12 -30 0 -11 -7 -18 -19 -18 -10 0 -33 -3
-50 -6 -43 -9 -39 7 9 30 37 18 58 34 89 71 20 24 4 31 -28 12 -16 -9 -35 -17
-43 -17 -7 0 -31 -18 -53 -40 -22 -21 -45 -39 -51 -40 -6 0 -17 -7 -24 -15 -7
-8 -22 -15 -34 -15 -12 0 -29 -9 -39 -20 -16 -19 -16 -20 3 -20 10 0 22 -4 25
-10 3 -6 15 -1 28 10 43 40 76 2 39 -45 -10 -13 -25 -44 -32 -69 -13 -46 -35
-65 -54 -45 -8 8 -8 13 2 16 14 6 16 63 2 63 -6 0 -16 -11 -22 -25 -6 -14 -20
-25 -31 -25 -11 0 -31 -12 -44 -27 -21 -22 -23 -29 -14 -51 13 -27 7 -42 -11
-24 -8 8 -17 7 -34 -4 -18 -12 -22 -22 -17 -48 4 -27 1 -36 -17 -49 -12 -8
-19 -20 -15 -26 3 -6 -1 -14 -9 -17 -10 -4 -16 -18 -16 -39 0 -18 -7 -49 -15
-68 -20 -49 -19 -56 10 -67 14 -5 25 -15 25 -23 0 -22 -31 -59 -46 -53 -7 3
-18 -4 -24 -14 -6 -11 -17 -20 -25 -20 -9 0 -16 -10 -16 -22 -1 -17 -2 -19 -6
-5 -6 22 -14 22 -40 -2 -19 -18 -20 -23 -9 -72 7 -29 17 -54 24 -57 6 -2 8
-10 5 -18 -5 -13 -8 -13 -29 1 -31 20 -33 19 -44 -9 -7 -19 -14 -23 -30 -19
-35 9 -76 -44 -83 -108 -4 -31 -2 -58 3 -63 6 -6 10 -18 10 -28 0 -10 7 -21
15 -24 8 -4 15 -15 15 -26 0 -11 8 -33 18 -50 17 -29 17 -30 -7 -49 -13 -11
-32 -34 -41 -52 -15 -26 -24 -32 -49 -31 -41 2 -43 -8 -45 -209 -2 -245 12
-928 20 -965 6 -29 8 -31 20 -15 14 20 12 23 34 -50 12 -37 11 -39 -29 -82
-23 -25 -41 -50 -41 -57 1 -56 49 -91 96 -69 14 6 43 11 65 11 l40 0 -23 -40
c-15 -25 -26 -36 -32 -30 -6 6 -18 10 -28 10 -16 0 -17 -3 -8 -20 6 -11 17
-20 25 -20 8 0 20 -12 27 -28 11 -22 19 -26 44 -24 28 3 32 -1 44 -37 7 -23
17 -41 21 -41 5 0 17 -10 29 -22 11 -12 35 -27 53 -33 36 -11 39 -25 8 -40
-12 -6 -21 -19 -21 -33 0 -20 3 -21 21 -12 26 15 43 8 65 -25 16 -25 16 -27
-5 -49 -19 -20 -20 -24 -7 -29 9 -4 22 0 30 8 15 16 35 19 60 9 11 -4 13 -11
5 -31 -10 -27 -5 -43 15 -43 7 0 23 -11 36 -25 18 -19 27 -22 41 -14 15 8 20
5 25 -16 4 -18 13 -25 30 -25 13 0 24 -4 24 -8 0 -20 44 -52 89 -66 27 -8 72
-30 100 -50 28 -20 55 -36 60 -36 5 0 30 -17 55 -38 26 -21 77 -54 114 -72 37
-19 82 -45 100 -58 18 -13 52 -32 77 -43 24 -11 47 -24 50 -29 3 -5 28 -16 54
-24 27 -8 77 -30 113 -49 72 -39 123 -53 133 -38 3 6 15 11 26 11 16 0 19 -4
14 -22 -4 -13 -8 -25 -8 -28 -6 -22 145 -130 180 -130 6 0 42 -18 79 -40 38
-22 74 -39 79 -36 6 2 21 7 35 11 23 7 24 6 10 -10 -13 -15 -12 -19 4 -31 14
-10 24 -10 38 -3 28 15 46 5 50 -27 3 -30 17 -40 131 -98 53 -28 73 -33 88
-26 10 6 28 14 39 20 11 5 27 10 37 10 14 0 13 4 -6 24 -23 25 -21 46 4 46 8
0 17 -11 21 -25 8 -30 27 -32 55 -4 16 16 18 23 8 35 -9 11 -8 14 3 14 8 0 18
-4 24 -10 9 -9 70 25 130 74 18 14 43 26 56 26 13 0 50 14 81 31 57 30 70 52
46 76 -9 9 -6 18 9 37 l20 26 6 -31 c7 -35 33 -35 28 -1 -4 28 17 36 63 23
l37 -10 -6 37 c-5 31 -4 34 6 22 7 -8 21 -21 30 -28 24 -19 58 1 58 34 0 23 3
24 33 19 35 -6 99 23 204 92 68 46 134 83 149 83 6 0 61 34 124 75 62 42 152
94 199 117 47 23 105 56 128 75 23 18 44 33 48 33 4 0 21 10 38 23 17 12 56
36 86 52 37 20 56 36 56 48 0 10 7 24 15 30 9 7 16 23 17 37 3 48 15 89 29
101 18 15 32 3 16 -13 -27 -27 -7 -78 29 -78 23 0 34 19 20 33 -19 19 -12 29
14 23 14 -4 35 -2 46 5 19 10 19 12 4 23 -15 11 -15 15 1 49 19 40 37 44 42 9
2 -14 11 -22 23 -22 12 0 19 -7 19 -19 0 -53 54 -22 66 37 5 25 3 32 -9 32
-21 0 -30 30 -14 49 8 9 17 25 21 36 l7 20 15 -20 c15 -20 15 -20 26 0 6 10
21 29 33 41 18 18 19 23 7 31 -13 8 -13 12 -1 31 8 13 24 25 36 28 20 6 21 7
5 35 -17 30 -16 31 11 53 26 21 28 29 35 127 5 57 10 208 12 334 5 226 4 1133
-1 1188 -3 38 -19 34 -19 -6 0 -40 -15 -57 -51 -57 -15 0 -32 -7 -39 -15 -7
-8 -21 -15 -32 -15 -19 0 -19 1 3 25 13 13 29 25 35 25 29 0 18 82 -22 178 -8
18 -14 42 -14 53 0 12 -11 30 -25 41 -15 11 -25 30 -25 44 0 17 -8 27 -24 33
-27 11 -36 29 -36 75 0 18 -7 41 -15 52 -8 10 -15 38 -15 61 0 34 -3 40 -18
37 -9 -3 -26 4 -37 16 -11 11 -28 28 -37 38 -11 10 -18 31 -18 54 0 45 -7 46
-82 18 -62 -24 -91 -27 -65 -7 13 10 14 20 7 59 -9 47 -5 77 12 89 15 10 -3
39 -23 39 -11 0 -21 6 -23 13 -14 53 -33 102 -62 159 -19 38 -31 74 -28 83 6
14 1 15 -32 10 -30 -5 -35 -4 -24 4 13 10 12 14 -9 31 -13 11 -29 20 -36 20
-7 0 -18 7 -25 15 -18 22 -47 18 -54 -7 -4 -14 -9 -19 -13 -12 -5 6 -17 16
-28 22 -19 11 -18 11 7 12 33 0 45 16 18 25 -11 3 -20 11 -20 16 0 5 -7 9 -16
9 -11 0 -14 -6 -9 -20 8 -25 -6 -26 -36 -1 -24 20 -24 20 -4 36 19 15 19 16
-13 10 -18 -4 -38 -2 -45 3 -7 6 -23 12 -37 14 -20 2 -26 9 -28 36 -3 26 -8
32 -27 32 -13 0 -39 14 -57 30 -18 17 -38 30 -45 30 -7 0 -13 4 -13 9 0 5 -18
12 -41 16 -22 4 -51 17 -64 28 -41 39 -54 47 -70 47 -9 0 -18 6 -21 14 -3 7
-22 22 -42 32 -20 11 -54 29 -74 42 -21 12 -42 22 -48 22 -6 0 -27 12 -45 26
-29 22 -41 25 -77 20 -33 -5 -38 -4 -20 4 27 12 29 30 3 30 -11 0 -23 5 -26
10 -3 6 -11 10 -17 10 -7 0 -7 -4 0 -13 8 -10 8 -24 0 -53 -7 -21 -13 -41 -14
-43 -2 -2 -17 8 -35 23 -23 19 -35 24 -44 16 -9 -8 -14 -5 -18 9 -4 17 -11 19
-42 14 -27 -4 -36 -3 -31 5 9 14 -22 62 -40 62 -7 0 -22 10 -34 22 -20 22 -21
22 -51 4 -17 -10 -40 -16 -51 -13 -13 4 -29 -3 -45 -19 l-25 -25 -27 25 c-21
20 -30 23 -39 14 -8 -8 -15 -8 -26 1 -11 9 -20 10 -35 2 -11 -6 -37 -11 -59
-11 -39 0 -73 -22 -53 -34 15 -10 2 -34 -17 -32 -13 1 -17 -7 -18 -33 0 -19
-6 -37 -12 -39 -22 -7 -71 56 -70 89 1 16 -4 35 -10 41 -7 7 -12 20 -12 30 0
21 -36 23 -83 6z m43 -28 c0 -11 -4 -20 -10 -20 -5 0 -10 9 -10 20 0 11 5 20
10 20 6 0 10 -9 10 -20z m600 -15 c0 -8 -7 -15 -15 -15 -16 0 -20 12 -8 23 11
12 23 8 23 -8z m-960 -54 c0 -12 -29 -23 -41 -15 -5 3 -7 10 -4 15 8 12 45 12
45 0z m148 -113 c-2 -13 -7 -23 -13 -23 -5 0 -11 10 -13 23 -2 15 2 22 13 22
11 0 15 -7 13 -22z m1423 -536 c3 -4 12 -34 18 -67 7 -33 42 -166 78 -295 35
-129 68 -255 73 -280 5 -25 15 -72 23 -105 40 -163 47 -209 37 -219 -8 -8
-310 -11 -1003 -11 -546 0 -1084 -1 -1197 -2 -113 -1 -208 1 -212 5 -8 8 14
118 37 181 19 56 195 758 195 782 0 9 6 20 13 22 20 8 1931 -3 1938 -11z m999
-476 l0 -31 -25 30 c-25 30 -31 56 -18 69 13 13 43 -35 43 -68z m-3760 25 c0
-4 -7 -16 -15 -27 -14 -18 -14 -17 -15 13 0 25 4 31 15 27 8 -4 15 -9 15 -13z
m-278 -416 c3 -14 1 -25 -3 -25 -5 0 -9 11 -9 25 0 14 2 25 4 25 2 0 6 -11 8
-25z m208 -32 c0 -9 -12 -29 -26 -44 -22 -23 -25 -32 -17 -55 12 -35 38 -53
54 -37 9 9 8 18 -5 38 -21 32 -7 55 32 55 23 0 24 -1 9 -12 -23 -18 -13 -49
24 -73 16 -11 28 -27 27 -35 -4 -21 -49 -41 -64 -29 -13 11 -58 -12 -81 -41
-10 -13 -14 -12 -33 5 -23 20 -60 95 -60 121 0 9 11 14 30 14 20 0 33 6 36 18
9 26 27 65 37 80 14 18 37 15 37 -5z m85 -63 c3 -5 1 -10 -4 -10 -6 0 -11 5
-11 10 0 6 2 10 4 10 3 0 8 -4 11 -10z m2396 -176 c12 -7 8 -23 -43 -154 -22
-58 -52 -134 -65 -170 -14 -36 -31 -78 -38 -95 -50 -119 -49 -117 -36 -284 7
-86 17 -201 21 -256 5 -55 13 -120 19 -145 5 -25 7 -48 2 -53 -6 -6 -350 -22
-431 -20 -14 1 -137 2 -273 3 -211 2 -249 4 -254 17 -3 8 1 77 10 152 53 457
53 446 32 509 -11 31 -23 64 -27 72 -9 17 -134 339 -151 388 -8 24 -8 35 0 40
13 8 1221 5 1234 -4z m-1798 -201 c158 -100 497 -325 520 -346 l27 -26 0 -318
0 -318 123 -120 c67 -66 166 -162 220 -213 l97 -94 0 -93 c0 -107 11 -90 -154
-239 -49 -44 -100 -91 -115 -105 -15 -14 -54 -52 -88 -83 l-62 -58 -179 0
-180 0 -28 48 c-64 107 -124 226 -124 242 0 5 -3 10 -7 10 -11 0 -43 58 -43
76 0 8 -4 14 -9 14 -5 0 -13 10 -17 23 -4 12 -10 24 -14 27 -14 9 -15 43 -2
47 7 3 12 -4 12 -16 0 -12 6 -21 15 -21 23 0 18 33 -10 74 -14 21 -30 61 -36
89 -6 28 -22 62 -36 76 -13 14 -26 37 -30 51 -3 14 -13 34 -22 45 -10 11 -26
34 -36 50 -19 32 -28 43 -70 89 -21 23 -29 26 -36 15 -5 -8 -4 -18 1 -23 6 -6
10 -19 9 -31 0 -16 -2 -15 -11 8 -5 15 -14 27 -19 27 -5 0 -9 6 -9 14 0 8 -6
21 -12 28 -16 18 -32 42 -59 96 -13 23 -26 42 -30 42 -3 0 -10 8 -13 18 -3 9
-12 26 -19 37 -6 11 -30 49 -51 85 -22 36 -70 115 -108 176 -37 62 -68 117
-68 123 0 15 33 44 133 118 44 32 111 83 150 114 40 30 95 70 122 89 28 18 60
42 72 53 12 11 31 25 41 31 67 41 92 60 97 77 8 24 7 24 58 -8z m2485 -42 c45
-34 93 -72 108 -86 15 -14 31 -25 35 -25 5 0 30 -19 57 -42 27 -24 81 -68 120
-98 40 -30 97 -79 128 -107 31 -29 65 -55 75 -58 20 -7 26 -30 10 -39 -5 -3
-20 -30 -35 -61 -14 -30 -30 -55 -35 -55 -5 0 -14 -12 -20 -27 -5 -16 -24 -50
-40 -78 -16 -27 -40 -70 -53 -95 -12 -25 -28 -52 -35 -60 -7 -9 -28 -45 -46
-81 -46 -88 -95 -177 -124 -221 -12 -21 -23 -40 -23 -43 0 -2 -17 -33 -38 -67
-20 -35 -52 -92 -71 -128 -57 -112 -86 -165 -107 -196 -31 -47 -44 -68 -51
-84 -4 -8 -31 -55 -60 -103 -29 -48 -53 -89 -53 -92 0 -2 -16 -31 -36 -64
l-36 -61 -127 -2 c-231 -5 -225 -5 -252 22 -13 14 -42 41 -64 59 -22 19 -84
75 -139 125 -54 50 -121 112 -149 138 l-51 47 3 87 c2 98 31 172 74 191 13 6
57 43 98 81 41 38 114 105 162 147 48 43 92 86 97 96 6 10 10 156 10 343 l0
326 79 58 c74 53 169 116 233 153 15 9 43 28 62 43 19 14 37 26 40 26 3 0 38
22 78 50 40 27 78 47 84 45 6 -2 48 -31 92 -64z m-3488 -605 c0 -8 -71 -46
-86 -46 -22 0 -17 14 14 32 24 16 72 25 72 14z m4437 -278 c-3 -8 -6 -5 -6 6
-1 11 2 17 5 13 3 -3 4 -12 1 -19z m-3677 -243 c0 -8 -4 -15 -10 -15 -5 0 -10
7 -10 15 0 8 5 15 10 15 6 0 10 -7 10 -15z m30 -51 c0 -8 -4 -14 -10 -14 -5 0
-10 9 -10 21 0 11 5 17 10 14 6 -3 10 -13 10 -21z m22 -56 c-9 -9 -12 -7 -12
12 0 19 3 21 12 12 9 -9 9 -15 0 -24z m28 -39 c0 -11 -4 -17 -10 -14 -5 3 -10
13 -10 21 0 8 5 14 10 14 6 0 10 -9 10 -21z m30 -44 c0 -8 -4 -17 -10 -20 -6
-4 -10 5 -10 20 0 15 4 24 10 20 6 -3 10 -12 10 -20z m3535 5 c3 -5 -1 -10 -9
-10 -9 0 -16 5 -16 10 0 6 4 10 9 10 6 0 13 -4 16 -10z m-3505 -55 c0 -8 -4
-15 -10 -15 -5 0 -10 7 -10 15 0 8 5 15 10 15 6 0 10 -7 10 -15z m42 -65 c4 0
8 -9 8 -20 0 -11 -4 -20 -8 -20 -14 0 -43 60 -36 72 5 8 11 5 17 -10 6 -12 14
-22 19 -22z m3338 -120 c0 -5 -5 -10 -11 -10 -5 0 -7 5 -4 10 3 6 8 10 11 10
2 0 4 -4 4 -10z m-1950 -1191 c0 -11 -27 -12 -34 0 -3 4 -3 11 0 14 8 8 34 -3
34 -14z m-127 -17 c17 -7 16 -9 -3 -30 -26 -27 -29 -27 -39 1 -14 35 0 45 42
29z"/>
<path d="M2101 5604 l-34 -24 27 0 c14 0 26 4 26 9 0 5 12 12 27 16 21 5 24 8
12 16 -18 11 -18 11 -58 -17z"/>
<path d="M1583 5283 c-7 -2 -13 -17 -12 -31 l0 -27 12 25 c6 14 16 28 22 32
11 9 -3 9 -22 1z"/>
<path d="M1572 5170 c0 -14 2 -19 5 -12 2 6 2 18 0 25 -3 6 -5 1 -5 -13z"/>
<path d="M1477 5104 c-18 -24 -22 -46 -10 -57 3 -4 12 1 18 10 11 15 15 15 29
4 15 -13 15 -17 -4 -48 -11 -19 -20 -41 -20 -49 0 -26 31 -14 41 16 6 17 15
30 20 30 22 0 7 53 -24 84 l-33 33 -17 -23z"/>
<path d="M5366 5111 c-9 -14 4 -41 20 -41 8 0 14 6 14 14 0 18 -26 40 -34 27z"/>
<path d="M1435 4811 c-3 -5 -1 -12 5 -16 5 -3 10 1 10 9 0 18 -6 21 -15 7z"/>
<path d="M1235 4730 c-8 -13 15 -24 27 -12 6 6 4 11 -6 15 -8 3 -18 2 -21 -3z"/>
<path d="M1350 4596 c0 -9 5 -16 10 -16 6 0 10 4 10 9 0 6 -4 13 -10 16 -5 3
-10 -1 -10 -9z"/>
<path d="M1380 2460 c0 -5 5 -10 10 -10 6 0 10 5 10 10 0 6 -4 10 -10 10 -5 0
-10 -4 -10 -10z"/>
<path d="M5706 2444 c-7 -19 2 -37 15 -29 12 8 12 45 0 45 -5 0 -12 -7 -15
-16z"/>
<path d="M1497 2263 c-13 -12 -7 -23 13 -23 11 0 20 7 20 15 0 15 -21 21 -33
8z"/>
<path d="M4290 1221 c0 -5 7 -11 15 -15 9 -3 15 0 15 9 0 8 -7 15 -15 15 -8 0
-15 -4 -15 -9z"/>
</g>
</svg>
